<?xml version="1.0" encoding="UTF-8"?>
<svg version="1.1" xmlns="http://www.w3.org/2000/svg" width="2048" height="49">
<path d="M0 0 C675.84 0 1351.68 0 2048 0 C2048 16.17 2048 32.34 2048 49 C1372.16 49 696.32 49 0 49 C0 32.83 0 16.66 0 0 Z " fill="#133BD9" transform="translate(0,0)"/>
<path d="M0 0 C11.22 0 22.44 0 34 0 C34 0.66 34 1.32 34 2 C32.68 2 31.36 2 30 2 C30 2.66 30 3.32 30 4 C29.34 4 28.68 4 28 4 C28 4.66 28 5.32 28 6 C27.34 6 26.68 6 26 6 C26 6.66 26 7.32 26 8 C20.45306567 10.49522289 16.36753348 9.76068445 10.625 8.625 C9.79355469 8.47289062 8.96210938 8.32078125 8.10546875 8.1640625 C6.06782507 7.78932343 4.03352643 7.39647371 2 7 C2 6.01 2 5.02 2 4 C1.34 4 0.68 4 0 4 C0 2.68 0 1.36 0 0 Z " fill="#133BD9" transform="translate(206,0)"/>
<path d="M0 0 C3.18706942 1.43561686 5.62169105 3.20266329 8.25 5.5 C8.95640625 6.1084375 9.6628125 6.716875 10.390625 7.34375 C12 9 12 9 12 11 C12.66 11 13.32 11 14 11 C14 11.66 14 12.32 14 13 C14.66 13 15.32 13 16 13 C16 13.66 16 14.32 16 15 C12.21036037 15.89497025 8.76260535 16.07794697 4.875 16 C1.4936398 15.93254144 -0.7759903 15.9253301 -4 17 C-3.58411954 10.80481527 -2.39748106 5.73310689 0 0 Z " fill="#133BD9" transform="translate(786,1)"/>
<path d="M0 0 C9.05529954 -0.62211982 9.05529954 -0.62211982 12.5625 1.6875 C15.5923985 6.56168455 14.97612735 10.4686117 14 16 C13.34 16 12.68 16 12 16 C12 16.66 12 17.32 12 18 C11.34 18 10.68 18 10 18 C10 19.32 10 20.64 10 22 C9.34 22 8.68 22 8 22 C8 20.68 8 19.36 8 18 C7.34 18 6.68 18 6 18 C5.18512829 15.75083381 4.37303082 13.50073022 3.5625 11.25 C3.33240234 10.61578125 3.10230469 9.9815625 2.86523438 9.328125 C1.75755231 6.24587924 0.70338964 3.20163562 0 0 Z " fill="#0F33BE" transform="translate(278,0)"/>
<path d="M0 0 C8.91 0 17.82 0 27 0 C24.75 12.375 24.75 12.375 22.375 18.1875 C21.92898438 19.29480469 21.48296875 20.40210938 21.0234375 21.54296875 C20.68570313 22.35378906 20.34796875 23.16460938 20 24 C19.34 24 18.68 24 18 24 C18.66 20.04 19.32 16.08 20 12 C20.66 12 21.32 12 22 12 C22 10.68 22 9.36 22 8 C20.77410156 7.84724609 20.77410156 7.84724609 19.5234375 7.69140625 C15.34104875 6.8706936 11.5856863 5.48095009 7.625 3.9375 C6.88894531 3.65583984 6.15289063 3.37417969 5.39453125 3.08398438 C3.5944264 2.39433382 1.7969379 1.69786068 0 1 C0 0.67 0 0.34 0 0 Z " fill="#0F34BF" transform="translate(886,0)"/>
<path d="M0 0 C10.56 0 21.12 0 32 0 C32 0.66 32 1.32 32 2 C30.68 2 29.36 2 28 2 C28 2.66 28 3.32 28 4 C27.34 4 26.68 4 26 4 C26 4.66 26 5.32 26 6 C24.68 6 23.36 6 22 6 C22 6.66 22 7.32 22 8 C20.02 8 18.04 8 16 8 C16 7.34 16 6.68 16 6 C14.87851563 6.01740234 14.87851563 6.01740234 13.734375 6.03515625 C12.74953125 6.04417969 11.7646875 6.05320312 10.75 6.0625 C9.28820313 6.07990234 9.28820313 6.07990234 7.796875 6.09765625 C5.34241322 6.01195577 3.33831086 5.70706066 1 5 C0.67 3.35 0.34 1.7 0 0 Z " fill="#123BD9" transform="translate(1100,0)"/>
<path d="M0 0 C0.99 0.33 1.98 0.66 3 1 C4.38671875 3.87109375 4.38671875 3.87109375 5.6875 7.4375 C6.12449219 8.61183594 6.56148438 9.78617188 7.01171875 10.99609375 C8 14 8 14 8 16 C10.64 15.34 13.28 14.68 16 14 C16 13.34 16 12.68 16 12 C16.66 12 17.32 12 18 12 C18 11.34 18 10.68 18 10 C18.66 10 19.32 10 20 10 C20 9.34 20 8.68 20 8 C21.0725 7.4225 22.145 6.845 23.25 6.25 C25.71837718 4.86433152 27.20630741 3.7819036 29.1875 1.6875 C29.785625 1.130625 30.38375 0.57375 31 0 C33.11328125 0.39453125 33.11328125 0.39453125 35 1 C34.43410156 1.48210938 33.86820312 1.96421875 33.28515625 2.4609375 C32.55167969 3.09257813 31.81820313 3.72421875 31.0625 4.375 C30.33160156 5.00148438 29.60070312 5.62796875 28.84765625 6.2734375 C26.91619094 7.87747714 26.91619094 7.87747714 26 10 C24.02111039 10.72693904 22.02045442 11.39816251 20 12 C20 12.66 20 13.32 20 14 C19.34 14 18.68 14 18 14 C18 14.66 18 15.32 18 16 C16.68 16 15.36 16 14 16 C14 17.32 14 18.64 14 20 C12.71086513 20.67154933 11.41859796 21.33708859 10.125 22 C9.40570313 22.37125 8.68640625 22.7425 7.9453125 23.125 C6 24 6 24 4 24 C4 22.68 4 21.36 4 20 C4.66 20 5.32 20 6 20 C4.70924862 15.36794187 3.46871572 10.93743145 1.3125 6.625 C0 4 0 4 0 0 Z " fill="#1135C5" transform="translate(368,0)"/>
<path d="M0 0 C9.24 0 18.48 0 28 0 C24.625 12.375 24.625 12.375 22.8125 16.6875 C22.46832031 17.51636719 22.12414063 18.34523438 21.76953125 19.19921875 C21.38861328 20.09060547 21.38861328 20.09060547 21 21 C19.92689142 17.72814447 20.10736898 15.57052408 20.9375 12.25 C21.13214844 11.45078125 21.32679687 10.6515625 21.52734375 9.828125 C21.68332031 9.22484375 21.83929687 8.6215625 22 8 C21.41734375 7.91363281 20.8346875 7.82726562 20.234375 7.73828125 C13.00963622 6.50007916 6.66676219 4.00118848 0 1 C0 0.67 0 0.34 0 0 Z " fill="#1036C2" transform="translate(1780,0)"/>
<path d="M0 0 C2.375 0.1875 2.375 0.1875 5 1 C6.3125 3.5625 6.3125 3.5625 7 6 C9.31 6 11.62 6 14 6 C15 9 15 9 14 12 C12.5209084 12.16733157 11.04172444 12.33384686 9.5625 12.5 C8.73878906 12.5928125 7.91507813 12.685625 7.06640625 12.78125 C5 13 5 13 4 13 C4.33 13.99 4.66 14.98 5 16 C0.25 17.125 0.25 17.125 -2 16 C-2 14.68 -2 13.36 -2 12 C-2.66 12 -3.32 12 -4 12 C-3.67 10.68 -3.34 9.36 -3 8 C-1.68 7.67 -0.36 7.34 1 7 C0.67 6.67 0.34 6.34 0 6 C-0.04080783 4.00041636 -0.04254356 1.99954746 0 0 Z " fill="#1035C0" transform="translate(968,0)"/>
<path d="M0 0 C1.32 0 2.64 0 4 0 C3.34 3.3 2.68 6.6 2 10 C5.3 10.66 8.6 11.32 12 12 C12 12.66 12 13.32 12 14 C13.98 14 15.96 14 18 14 C18 14.66 18 15.32 18 16 C19.98 16 21.96 16 24 16 C24 16.66 24 17.32 24 18 C24.66 18 25.32 18 26 18 C26 18.66 26 19.32 26 20 C24.02 20 22.04 20 20 20 C20 19.34 20 18.68 20 18 C18.02 18 16.04 18 14 18 C14 17.34 14 16.68 14 16 C12.7625 15.8453125 12.7625 15.8453125 11.5 15.6875 C7.40710988 14.88353944 3.87459775 13.53647842 0 12 C-0.66 13.98 -1.32 15.96 -2 18 C-2.66 18 -3.32 18 -4 18 C-4.21192221 12.80790596 -3.5912689 8.873261 -2 4 C-1.34 4 -0.68 4 0 4 C0 2.68 0 1.36 0 0 Z " fill="#1236C6" transform="translate(1766,0)"/>
<path d="M0 0 C3.96 0 7.92 0 12 0 C12 5 12 5 10 8 C9.34 8 8.68 8 8 8 C8 8.66 8 9.32 8 10 C7.34 10 6.68 10 6 10 C6 10.66 6 11.32 6 12 C4.02 12 2.04 12 0 12 C-0.33 13.65 -0.66 15.3 -1 17 C-1.33 17 -1.66 17 -2 17 C-2.25287193 10.93107371 -1.69832609 5.83799592 0 0 Z " fill="#133ADA" transform="translate(1842,0)"/>
<path d="M0 0 C1.32 0 2.64 0 4 0 C4 1.32 4 2.64 4 4 C3.34 4 2.68 4 2 4 C2 5.32 2 6.64 2 8 C1.34 8 0.68 8 0 8 C0 8.66 0 9.32 0 10 C1.299375 9.938125 1.299375 9.938125 2.625 9.875 C6.12358468 10.00457721 8.74551597 10.76019656 12 12 C12 12.66 12 13.32 12 14 C13.32 14 14.64 14 16 14 C16 14.66 16 15.32 16 16 C17.65 16 19.3 16 21 16 C21 16.66 21 17.32 21 18 C18.69 18 16.38 18 14 18 C14 17.34 14 16.68 14 16 C13.28457031 16.04125 12.56914063 16.0825 11.83203125 16.125 C8.69180414 15.98639687 6.56788652 15.22896491 3.6875 14 C2.80449219 13.62875 1.92148437 13.2575 1.01171875 12.875 C0.34785156 12.58625 -0.31601562 12.2975 -1 12 C-1.33 13.98 -1.66 15.96 -2 18 C-2.66 18 -3.32 18 -4 18 C-4.33 19.65 -4.66 21.3 -5 23 C-5.99 23.33 -6.98 23.66 -8 24 C-7.79503906 23.32453125 -7.59007812 22.6490625 -7.37890625 21.953125 C-6.97478516 20.61507813 -6.97478516 20.61507813 -6.5625 19.25 C-6.29566406 18.36828125 -6.02882813 17.4865625 -5.75390625 16.578125 C-5.11531506 14.39434165 -4.53224167 12.21164502 -4 10 C-3.34 10 -2.68 10 -2 10 C-1.855625 9.0925 -1.71125 8.185 -1.5625 7.25 C-1.13590527 4.78523044 -0.64925779 2.41152893 0 0 Z " fill="#1136C3" transform="translate(872,0)"/>
<path d="M0 0 C1.8125 0.1875 1.8125 0.1875 4 1 C6.53370588 4.34811134 7 5.70124217 7 10 C7.66 10 8.32 10 9 10 C9 11.32 9 12.64 9 14 C9.66 14 10.32 14 11 14 C14.14819255 19.86215164 16.26375242 25.5811453 18 32 C15 31 15 31 13.6496582 28.77514648 C12.98196411 27.33764038 12.98196411 27.33764038 12.30078125 25.87109375 C11.81416016 24.83662109 11.32753906 23.80214844 10.82617188 22.73632812 C10.32666016 21.64771484 9.82714844 20.55910156 9.3125 19.4375 C8.80138672 18.34501953 8.29027344 17.25253906 7.76367188 16.12695312 C6.49984211 13.4221212 5.24579115 10.71317571 4 8 C-0.18106386 8.35349835 -0.18106386 8.35349835 -3.5 10.5625 C-5 12 -5 12 -8.1875 12.1875 C-9.115625 12.125625 -10.04375 12.06375 -11 12 C-11 11.34 -11 10.68 -11 10 C-9.68 10 -8.36 10 -7 10 C-7 9.34 -7 8.68 -7 8 C-6.236875 7.731875 -5.47375 7.46375 -4.6875 7.1875 C-2.12619116 6.05575888 -0.80307062 5.08776599 1 3 C0.67 2.01 0.34 1.02 0 0 Z " fill="#1135C4" transform="translate(1209,0)"/>
<path d="M0 0 C5.61 0 11.22 0 17 0 C17 5 17 5 15.5625 6.5625 C15.046875 7.036875 14.53125 7.51125 14 8 C13.28552357 10.10332891 13.28552357 10.10332891 13 12 C12.34 12 11.68 12 11 12 C11 13.32 11 14.64 11 16 C10.34 16 9.68 16 9 16 C9 14.824375 9 13.64875 9 12.4375 C8.53993077 8.33339036 7.04830748 6.70696068 3.9375 4.0625 C3.20402344 3.49660156 2.47054687 2.93070312 1.71484375 2.34765625 C0.86599609 1.68056641 0.86599609 1.68056641 0 1 C0 0.67 0 0.34 0 0 Z " fill="#1134C0" transform="translate(821,0)"/>
<path d="M0 0 C6.27 0 12.54 0 19 0 C18.67 0.66 18.34 1.32 18 2 C16.68 2 15.36 2 14 2 C14 2.66 14 3.32 14 4 C12.68 4 11.36 4 10 4 C10 4.66 10 5.32 10 6 C8.68 6 7.36 6 6 6 C6 7.32 6 8.64 6 10 C6.66 10 7.32 10 8 10 C7.67 11.32 7.34 12.64 7 14 C6.01 14 5.02 14 4 14 C4 12.02 4 10.04 4 8 C3.34 8 2.68 8 2 8 C1.34 5.36 0.68 2.72 0 0 Z " fill="#1134C3" transform="translate(1172,0)"/>
<path d="M0 0 C4.29 0 8.58 0 13 0 C13.66 1.98 14.32 3.96 15 6 C15.66 6 16.32 6 17 6 C17.99 8.97 18.98 11.94 20 15 C19.01 15.33 18.02 15.66 17 16 C17 14.68 17 13.36 17 12 C16.34 12 15.68 12 15 12 C14.34 10.35 13.68 8.7 13 7 C11.783125 6.9175 10.56625 6.835 9.3125 6.75 C5.21925062 6.24834066 2.92158915 5.01288881 0 2 C0 1.34 0 0.68 0 0 Z " fill="#0F32BC" transform="translate(305,0)"/>
<path d="M0 0 C7.71484375 -0.09765625 7.71484375 -0.09765625 10 0 C11 1 11 1 11.0625 3.5625 C11.041875 4.366875 11.02125 5.17125 11 6 C10.34 6 9.68 6 9 6 C8.67 7.65 8.34 9.3 8 11 C6.0625 11.5625 6.0625 11.5625 4 12 C3 11 3 11 2.9375 8.4375 C2.958125 7.633125 2.97875 6.82875 3 6 C2.34 5.67 1.68 5.34 1 5 C1 8.63 1 12.26 1 16 C0.67 16 0.34 16 0 16 C0 10.72 0 5.44 0 0 Z " fill="#1032BD" transform="translate(130,0)"/>
<path d="M0 0 C2.64 0 5.28 0 8 0 C8 3.3 8 6.6 8 10 C7.34 10 6.68 10 6 10 C6 10.66 6 11.32 6 12 C4.02 12 2.04 12 0 12 C0 8.04 0 4.08 0 0 Z " fill="#143BD9" transform="translate(1026,0)"/>
<path d="M0 0 C5.37313433 0.47761194 5.37313433 0.47761194 7.875 2.5625 C9.52772156 6.14339672 9.19618208 9.07635835 9 13 C8.34 13 7.68 13 7 13 C7 13.66 7 14.32 7 15 C6.34 15 5.68 15 5 15 C4.16260219 12.8765984 3.33019717 10.7512272 2.5 8.625 C1.80390625 6.84996094 1.80390625 6.84996094 1.09375 5.0390625 C0 2 0 2 0 0 Z " fill="#133CDA" transform="translate(281,1)"/>
<path d="M0 0 C2.31 0 4.62 0 7 0 C7 1.32 7 2.64 7 4 C6.34 4 5.68 4 5 4 C5 5.32 5 6.64 5 8 C4.34 8 3.68 8 3 8 C3 8.66 3 9.32 3 10 C1.02 10 -0.96 10 -3 10 C-3 8.02 -3 6.04 -3 4 C-2.34 3.67 -1.68 3.34 -1 3 C-0.67 2.01 -0.34 1.02 0 0 Z " fill="#1135BA" transform="translate(955,0)"/>
<path d="M0 0 C0.99 0 1.98 0 3 0 C3.85695967 5.88400655 4.12539234 11.55909292 4.0625 17.5 C4.05798828 18.32242187 4.05347656 19.14484375 4.04882812 19.9921875 C4.03718489 21.99482396 4.01925556 23.99742227 4 26 C3.34 26 2.68 26 2 26 C1.93941406 25.15695313 1.87882812 24.31390625 1.81640625 23.4453125 C1.73261719 22.34960938 1.64882812 21.25390625 1.5625 20.125 C1.48128906 19.03445312 1.40007812 17.94390625 1.31640625 16.8203125 C1.16998297 14.05271029 1.16998297 14.05271029 0 12 C-0.07065617 9.95944995 -0.08421976 7.91665743 -0.0625 5.875 C-0.05347656 4.77929688 -0.04445313 3.68359375 -0.03515625 2.5546875 C-0.02355469 1.71164062 -0.01195312 0.86859375 0 0 Z " fill="#1435C3" transform="translate(1418,0)"/>
<path d="M0 0 C2.69082872 0.17635452 5.32851446 0.61835921 8 1 C8.6875 2.6875 8.6875 2.6875 9 5 C7.6875 7.75 7.6875 7.75 6 10 C5.34 10 4.68 10 4 10 C4 9.34 4 8.68 4 8 C3.34 8 2.68 8 2 8 C2 7.34 2 6.68 2 6 C0.68 5.67 -0.64 5.34 -2 5 C-1.125 1.125 -1.125 1.125 0 0 Z " fill="#0F34C1" transform="translate(1714,2)"/>
<path d="M0 0 C2.0625 0.4375 2.0625 0.4375 4 1 C4 2.98 4 4.96 4 7 C2.68 7 1.36 7 0 7 C0 7.66 0 8.32 0 9 C-1.98 9 -3.96 9 -6 9 C-6 7.02 -6 5.04 -6 3 C-5.195625 2.690625 -4.39125 2.38125 -3.5625 2.0625 C-1.10919595 1.23664655 -1.10919595 1.23664655 0 0 Z " fill="#1137C9" transform="translate(136,15)"/>
<path d="M0 0 C1.65 0 3.3 0 5 0 C5.625 1.875 5.625 1.875 6 4 C5.34 4.66 4.68 5.32 4 6 C2.68 6 1.36 6 0 6 C-0.33 8.97 -0.66 11.94 -1 15 C-1.99 15.33 -2.98 15.66 -4 16 C-4 13.36 -4 10.72 -4 8 C-3.34 8 -2.68 8 -2 8 C-2 6.02 -2 4.04 -2 2 C-1.34 2 -0.68 2 0 2 C0 1.34 0 0.68 0 0 Z " fill="#1335BF" transform="translate(1678,0)"/>
<path d="M0 0 C1.32 0.33 2.64 0.66 4 1 C5.32 5.95 6.64 10.9 8 16 C7.01 16 6.02 16 5 16 C5 15.34 5 14.68 5 14 C3.35 14 1.7 14 0 14 C0 13.34 0 12.68 0 12 C1.32 12 2.64 12 4 12 C3.505 10.8553125 3.505 10.8553125 3 9.6875 C2 7 2 7 2 4 C0.02 4.33 -1.96 4.66 -4 5 C-3.34 4.01 -2.68 3.02 -2 2 C-1.34 2 -0.68 2 0 2 C0 1.34 0 0.68 0 0 Z " fill="#0F33BC" transform="translate(240,0)"/>
<path d="M0 0 C0.66 0 1.32 0 2 0 C2 0.66 2 1.32 2 2 C2.99 1.34 3.98 0.68 5 0 C7.6875 -0.125 7.6875 -0.125 10 0 C10.33 0.99 10.66 1.98 11 3 C10.360625 3.268125 9.72125 3.53625 9.0625 3.8125 C6.66868314 4.88667752 6.66868314 4.88667752 6 8 C4.02 8 2.04 8 0 8 C0 5.36 0 2.72 0 0 Z " fill="#1137C7" transform="translate(950,14)"/>
<path d="M0 0 C0.66 0 1.32 0 2 0 C2 3.3 2 6.6 2 10 C2.66 10 3.32 10 4 10 C4 9.34 4 8.68 4 8 C5.32 8 6.64 8 8 8 C8 8.66 8 9.32 8 10 C7.34 10 6.68 10 6 10 C6 10.66 6 11.32 6 12 C4.02 12 2.04 12 0 12 C-0.33 13.65 -0.66 15.3 -1 17 C-1.33 17 -1.66 17 -2 17 C-2.25287193 10.93107371 -1.69832609 5.83799592 0 0 Z " fill="#1135C3" transform="translate(1842,0)"/>
<path d="M0 0 C4.39750672 0.50740462 6.86948922 3.08293314 10 6 C10 6.66 10 7.32 10 8 C10.66 8 11.32 8 12 8 C12 8.66 12 9.32 12 10 C12.928125 10.2165625 12.928125 10.2165625 13.875 10.4375 C16 11 16 11 18 12 C18 12.66 18 13.32 18 14 C18.66 14 19.32 14 20 14 C20 14.66 20 15.32 20 16 C18.68 16 17.36 16 16 16 C16 15.34 16 14.68 16 14 C15.34 14 14.68 14 14 14 C14 13.34 14 12.68 14 12 C13.27425781 11.7525 12.54851563 11.505 11.80078125 11.25 C8.72154736 9.87572546 6.68533961 8.25344071 4.1875 6 C3.39730469 5.29875 2.60710938 4.5975 1.79296875 3.875 C0 2 0 2 0 0 Z " fill="#0F34BD" transform="translate(752,0)"/>
<path d="M0 0 C1.32 0 2.64 0 4 0 C4.66 2.97 5.32 5.94 6 9 C1.71 8.34 -2.58 7.68 -7 7 C-6.01 6.01 -5.02 5.02 -4 4 C-3.34 4 -2.68 4 -2 4 C-2 3.34 -2 2.68 -2 2 C-1.34 2 -0.68 2 0 2 C0 1.34 0 0.68 0 0 Z " fill="#143BD7" transform="translate(1132,2)"/>
<path d="M0 0 C5.61 0 11.22 0 17 0 C16.67 1.98 16.34 3.96 16 6 C12.21760329 5.34309381 8.78158474 4.279869 5.1875 2.9375 C4.21167969 2.57527344 3.23585938 2.21304687 2.23046875 1.83984375 C1.49441406 1.56269531 0.75835938 1.28554688 0 1 C0 0.67 0 0.34 0 0 Z " fill="#113BD9" transform="translate(894,0)"/>
<path d="M0 0 C5.61 0 11.22 0 17 0 C16.67 1.98 16.34 3.96 16 6 C10.63904723 4.41078475 5.29156027 2.81027062 0 1 C0 0.67 0 0.34 0 0 Z " fill="#123CDB" transform="translate(1788,0)"/>
<path d="M0 0 C0.99 0 1.98 0 3 0 C3.86928276 2.39127957 4.72051601 4.78661726 5.5625 7.1875 C5.9327832 8.19780273 5.9327832 8.19780273 6.31054688 9.22851562 C7.68624467 13.2006008 8.31172566 15.95485799 7 20 C6.34 20 5.68 20 5 20 C3.33333333 13.33333333 1.66666667 6.66666667 0 0 Z " fill="#0E34C1" transform="translate(419,0)"/>
<path d="M0 0 C2.92045387 0.47704625 4.68900803 1.43785665 6.9609375 3.3203125 C8.7734375 6.0078125 8.7734375 6.0078125 9.9609375 8.3203125 C8.9709375 8.3203125 7.9809375 8.3203125 6.9609375 8.3203125 C6.5690625 7.7015625 6.1771875 7.0828125 5.7734375 6.4453125 C3.01294469 3.20887266 0.07774828 3.13017692 -4.0390625 2.3203125 C-4.0390625 2.9803125 -4.0390625 3.6403125 -4.0390625 4.3203125 C-4.6990625 4.3203125 -5.3590625 4.3203125 -6.0390625 4.3203125 C-6.0390625 4.9803125 -6.0390625 5.6403125 -6.0390625 6.3203125 C-7.3590625 6.3203125 -8.6790625 6.3203125 -10.0390625 6.3203125 C-10.0390625 4.3203125 -10.0390625 4.3203125 -8.5390625 2.1953125 C-5.62737896 0.01154985 -3.60706516 -0.20113746 0 0 Z " fill="#1033C0" transform="translate(306.0390625,7.6796875)"/>
<path d="M0 0 C0.66 0 1.32 0 2 0 C2 3.3 2 6.6 2 10 C1.34 10 0.68 10 0 10 C0 12.64 0 15.28 0 18 C-1.32 18.33 -2.64 18.66 -4 19 C-4 18.01 -4 17.02 -4 16 C-3.34 16 -2.68 16 -2 16 C-2.02320313 15.26394531 -2.04640625 14.52789062 -2.0703125 13.76953125 C-2.08835937 12.79371094 -2.10640625 11.81789063 -2.125 10.8125 C-2.14820313 9.84957031 -2.17140625 8.88664063 -2.1953125 7.89453125 C-1.9913544 4.87187222 -1.26874632 2.73230015 0 0 Z " fill="#1236C0" transform="translate(948,0)"/>
<path d="M0 0 C0 0.66 0 1.32 0 2 C-1.32 2 -2.64 2 -4 2 C-4 2.66 -4 3.32 -4 4 C-5.32 4 -6.64 4 -8 4 C-7.67 4.9075 -7.34 5.815 -7 6.75 C-6 10 -6 10 -6 14 C-6.66 14 -7.32 14 -8 14 C-10.1519437 10.77208445 -10.20086443 9.71599191 -10 6 C-10.66 6 -11.32 6 -12 6 C-12 5.34 -12 4.68 -12 4 C-11.34 4 -10.68 4 -10 4 C-10 3.34 -10 2.68 -10 2 C-6.49223216 0.39644899 -3.85645121 -0.22036864 0 0 Z " fill="#1337CB" transform="translate(1192,16)"/>
<path d="M0 0 C0.99 0 1.98 0 3 0 C3.05437607 1.58294782 3.09296271 3.16644256 3.125 4.75 C3.14820313 5.63171875 3.17140625 6.5134375 3.1953125 7.421875 C2.98447555 10.20492278 2.58302466 11.71009012 1 14 C-1.125 15.25 -1.125 15.25 -3 16 C-2.68954268 14.0830014 -2.37655329 12.16641277 -2.0625 10.25 C-1.88847656 9.18265625 -1.71445312 8.1153125 -1.53515625 7.015625 C-1.11295829 4.63652407 -0.62797116 2.33084789 0 0 Z " fill="#1136C4" transform="translate(679,0)"/>
<path d="M0 0 C4.73333862 0.28686901 7.04880858 2.51652573 10.3515625 5.625 C12.0653207 7.22445871 12.0653207 7.22445871 15 8 C15 9.32 15 10.64 15 12 C13.68 12 12.36 12 11 12 C11 11.34 11 10.68 11 10 C10.34 10 9.68 10 9 10 C7.63823078 8.35648543 6.31037934 6.68477344 5 5 C3.35216394 3.31471312 1.68997323 1.64302953 0 0 Z " fill="#1033BB" transform="translate(1645,0)"/>
<path d="M0 0 C1.32 0 2.64 0 4 0 C4.66 2.64 5.32 5.28 6 8 C2.7 7.34 -0.6 6.68 -4 6 C-4 5.34 -4 4.68 -4 4 C-3.34 4 -2.68 4 -2 4 C-2 3.34 -2 2.68 -2 2 C-1.34 2 -0.68 2 0 2 C0 1.34 0 0.68 0 0 Z " fill="#133CDA" transform="translate(238,4)"/>
<path d="M0 0 C0.99 0.33 1.98 0.66 3 1 C4.38671875 3.87109375 4.38671875 3.87109375 5.6875 7.4375 C6.12449219 8.61183594 6.56148438 9.78617188 7.01171875 10.99609375 C8 14 8 14 8 16 C5.2775526 14.98194194 4.18557612 14.32876756 2.734375 11.7578125 C2.40953125 10.88898437 2.0846875 10.02015625 1.75 9.125 C1.41484375 8.26132813 1.0796875 7.39765625 0.734375 6.5078125 C0 4 0 4 0 0 Z " fill="#0E34BA" transform="translate(368,0)"/>
<path d="M0 0 C0.66 0 1.32 0 2 0 C2.3540919 6.51791392 2.03901852 11.17521449 -1 17 C-1.33 17 -1.66 17 -2 17 C-2.3690205 5.47835991 -2.3690205 5.47835991 0 0 Z " fill="#1335C2" transform="translate(628,0)"/>
<path d="M0 0 C2.31 0 4.62 0 7 0 C8.125 3.75 8.125 3.75 7 6 C5.02 6 3.04 6 1 6 C-0.0625 4.125 -0.0625 4.125 -1 2 C-0.67 1.34 -0.34 0.68 0 0 Z " fill="#1033BA" transform="translate(148,2)"/>
<path d="M0 0 C0.66 0 1.32 0 2 0 C2.20674944 5.78898419 1.59162079 10.42932723 0 16 C-0.66 16 -1.32 16 -2 16 C-2 12.04 -2 8.08 -2 4 C-1.34 4 -0.68 4 0 4 C0 2.68 0 1.36 0 0 Z " fill="#1236C2" transform="translate(1574,0)"/>
<path d="M0 0 C0.66 0 1.32 0 2 0 C2.53181175 2.24743045 3.05007126 4.49807102 3.5625 6.75 C3.85253906 8.00296875 4.14257812 9.2559375 4.44140625 10.546875 C4.93444283 13.59473748 5.07666879 15.17641828 4 18 C3.34 18 2.68 18 2 18 C1.6603981 16.12612523 1.32861309 14.25083303 1 12.375 C0.7215625 10.80878906 0.7215625 10.80878906 0.4375 9.2109375 C0.01284203 6.09425135 -0.07545206 3.14069188 0 0 Z " fill="#1235C1" transform="translate(472,0)"/>
<path d="M0 0 C1.65 0.33 3.3 0.66 5 1 C4.47731534 3.76276177 3.89130413 6.3260876 3 9 C0.9375 9.6875 0.9375 9.6875 -1 10 C-1.125 2.25 -1.125 2.25 0 0 Z " fill="#1034BD" transform="translate(1695,3)"/>
<path d="M0 0 C3.63 0 7.26 0 11 0 C11 0.66 11 1.32 11 2 C10.34 2 9.68 2 9 2 C9 3.32 9 4.64 9 6 C5.32579134 5.69381595 4.21864487 5.24228216 1.6875 2.4375 C1.130625 1.633125 0.57375 0.82875 0 0 Z " fill="#143BD9" transform="translate(825,0)"/>
<path d="M0 0 C2.05078125 0.03255208 4.1015625 0.06510417 6.15234375 0.09765625 C5.83984375 1.97265625 5.83984375 1.97265625 5.15234375 4.09765625 C2.15234375 6.09765625 2.15234375 6.09765625 -0.03515625 5.72265625 C-0.63328125 5.51640625 -1.23140625 5.31015625 -1.84765625 5.09765625 C-2.41015625 3.16015625 -2.41015625 3.16015625 -2.84765625 1.09765625 C-1.84765625 0.09765625 -1.84765625 0.09765625 0 0 Z " fill="#1033B8" transform="translate(162.84765625,-0.09765625)"/>
<path d="M0 0 C0.66 0 1.32 0 2 0 C2.61714585 5.86288556 0.65537274 10.85400392 -2 16 C-2.66 16.33 -3.32 16.66 -4 17 C-3.39174965 12.65535464 -2.73832608 8.32448133 -2 4 C-1.34 4 -0.68 4 0 4 C0 2.68 0 1.36 0 0 Z " fill="#0E35BF" transform="translate(1626,0)"/>
<path d="M0 0 C2.64 0 5.28 0 8 0 C6.87548273 2.9719385 5.77706209 5.33440687 4 8 C3.34 8 2.68 8 2 8 C2 7.01 2 6.02 2 5 C1.34 4.67 0.68 4.34 0 4 C0 2.68 0 1.36 0 0 Z " fill="#1034BE" transform="translate(1725,0)"/>
<path d="M0 0 C0.99 0.33 1.98 0.66 3 1 C3.33 2.65 3.66 4.3 4 6 C4.66 6 5.32 6 6 6 C6.33 8.31 6.66 10.62 7 13 C6.01 13 5.02 13 4 13 C4 12.01 4 11.02 4 10 C3.34 10 2.68 10 2 10 C1.34 6.7 0.68 3.4 0 0 Z " fill="#1235C4" transform="translate(1262,0)"/>
<path d="M0 0 C0.99 0.33 1.98 0.66 3 1 C3.33 3.97 3.66 6.94 4 10 C4.66 10 5.32 10 6 10 C6 11.98 6 13.96 6 16 C5.34 16 4.68 16 4 16 C4 14.68 4 13.36 4 12 C3.34 11.67 2.68 11.34 2 11 C1.3671875 8.49609375 1.3671875 8.49609375 0.875 5.4375 C0.70742187 4.42558594 0.53984375 3.41367187 0.3671875 2.37109375 C0.24601562 1.58863281 0.12484375 0.80617187 0 0 Z " fill="#1235C2" transform="translate(1314,0)"/>
<path d="M0 0 C0.66 0 1.32 0 2 0 C3.65102315 4.95306944 3.63299924 10.10100227 2 15 C1.67 15.66 1.34 16.32 1 17 C0.67 17 0.34 17 0 17 C0 11.39 0 5.78 0 0 Z " fill="#1334C2" transform="translate(524,0)"/>
<path d="M0 0 C0 0.66 0 1.32 0 2 C-0.66 2 -1.32 2 -2 2 C-2 2.66 -2 3.32 -2 4 C-3.6796875 5.5078125 -3.6796875 5.5078125 -5.875 7.125 C-6.95394531 7.93324219 -6.95394531 7.93324219 -8.0546875 8.7578125 C-10 10 -10 10 -12 10 C-12 10.66 -12 11.32 -12 12 C-12.66 12 -13.32 12 -14 12 C-13.34 10.68 -12.68 9.36 -12 8 C-11.34 8 -10.68 8 -10 8 C-10 7.34 -10 6.68 -10 6 C-9.34 6 -8.68 6 -8 6 C-8 5.34 -8 4.68 -8 4 C-7.34 4 -6.68 4 -6 4 C-6 3.34 -6 2.68 -6 2 C-2.25 0 -2.25 0 0 0 Z " fill="#1033BE" transform="translate(1294,2)"/>
<path d="M0 0 C0.66 0 1.32 0 2 0 C1.33333333 4 0.66666667 8 0 12 C-0.66 12 -1.32 12 -2 12 C-2 13.32 -2 14.64 -2 16 C-2.66 16 -3.32 16 -4 16 C-3.47606294 10.13190493 -2.23891142 5.45126259 0 0 Z " fill="#1036BB" transform="translate(732,0)"/>
<path d="M0 0 C1.32 0 2.64 0 4 0 C2.95125002 2.62187494 2.35068687 3.79371361 -0.125 5.25 C-0.74375 5.4975 -1.3625 5.745 -2 6 C-2 6.66 -2 7.32 -2 8 C-2.66 8 -3.32 8 -4 8 C-4 8.66 -4 9.32 -4 10 C-4.66 10 -5.32 10 -6 10 C-5.49822465 5.65128026 -2.97477985 3.04396078 0 0 Z " fill="#1336C9" transform="translate(1112,14)"/>
<path d="M0 0 C0.99 0.33 1.98 0.66 3 1 C3.66 5.29 4.32 9.58 5 14 C4.01 14.495 4.01 14.495 3 15 C2.49363393 13.25183142 1.99515381 11.50137737 1.5 9.75 C1.2215625 8.77546875 0.943125 7.8009375 0.65625 6.796875 C0 4 0 4 0 0 Z " fill="#1033C0" transform="translate(1366,0)"/>
<path d="M0 0 C0.99 0 1.98 0 3 0 C2.88660796 2.64680904 2.75987127 5.29177518 2.625 7.9375 C2.5940625 8.69224609 2.563125 9.44699219 2.53125 10.22460938 C2.4273685 12.15507395 2.22104386 14.07942081 2 16 C1.34 16.33 0.68 16.66 0 17 C0 11.39 0 5.78 0 0 Z " fill="#0C33C1" transform="translate(1023,0)"/>
<path d="M0 0 C0.99 0 1.98 0 3 0 C2.67 5.28 2.34 10.56 2 16 C1.67 16 1.34 16 1 16 C-0.12862175 10.63904667 -0.09688221 5.44693314 0 0 Z " fill="#1034C4" transform="translate(985,0)"/>
<path d="M0 0 C2.31 0 4.62 0 7 0 C6.67 0.66 6.34 1.32 6 2 C4.68 2 3.36 2 2 2 C2 2.66 2 3.32 2 4 C-0.64738916 5.4606285 -1.89448334 6 -5 6 C-4.67 4.68 -4.34 3.36 -4 2 C-2.68 2 -1.36 2 0 2 C0 1.34 0 0.68 0 0 Z " fill="#1336C6" transform="translate(1854,10)"/>
<path d="M0 0 C0.66 0 1.32 0 2 0 C2.03738281 0.61488281 2.07476563 1.22976562 2.11328125 1.86328125 C2.17902344 2.67152344 2.24476562 3.47976562 2.3125 4.3125 C2.37050781 5.11300781 2.42851563 5.91351563 2.48828125 6.73828125 C3.08206694 9.36272334 3.95780294 10.30820672 6 12 C5.01 12.495 5.01 12.495 4 13 C3.01 12.67 2.02 12.34 1 12 C-0.26237731 9.47524538 -0.09856404 7.68799534 -0.0625 4.875 C-0.05347656 3.96492187 -0.04445313 3.05484375 -0.03515625 2.1171875 C-0.02355469 1.41851562 -0.01195312 0.71984375 0 0 Z " fill="#1033BC" transform="translate(1052,0)"/>
<path d="M0 0 C0.33 0 0.66 0 1 0 C1 1.98 1 3.96 1 6 C0.34 6 -0.32 6 -1 6 C-1 6.66 -1 7.32 -1 8 C0.32 8 1.64 8 3 8 C3 8.66 3 9.32 3 10 C1.02 10 -0.96 10 -3 10 C-3 8.02 -3 6.04 -3 4 C-2.34 3.67 -1.68 3.34 -1 3 C-0.67 2.01 -0.34 1.02 0 0 Z " fill="#1237C9" transform="translate(955,0)"/>
<path d="M0 0 C0.99 0 1.98 0 3 0 C2.67 3.3 2.34 6.6 2 10 C1.34 10 0.68 10 0 10 C-1.125 3.375 -1.125 3.375 0 0 Z " fill="#1234C2" transform="translate(1868,0)"/>
<path d="M0 0 C0.99 0 1.98 0 3 0 C3.05422947 1.4370809 3.09289723 2.87475462 3.125 4.3125 C3.14820313 5.11300781 3.17140625 5.91351563 3.1953125 6.73828125 C3 9 3 9 1 12 C0.67 8.04 0.34 4.08 0 0 Z " fill="#1034C6" transform="translate(1060,0)"/>
<path d="M0 0 C0.99 0 1.98 0 3 0 C3.20086443 3.71599191 3.1519437 4.77208445 1 8 C0.34 8 -0.32 8 -1 8 C-1.125 2.25 -1.125 2.25 0 0 Z " fill="#1234C2" transform="translate(1851,0)"/>
<path d="M0 0 C2.31 0 4.62 0 7 0 C7.66 1.32 8.32 2.64 9 4 C5.625 3.6875 5.625 3.6875 2 3 C1.34 2.01 0.68 1.02 0 0 Z " fill="#133CD8" transform="translate(308,0)"/>
<path d="M0 0 C0 0.66 0 1.32 0 2 C-3.61973402 3.31626692 -6.09567131 4 -10 4 C-10 3.34 -10 2.68 -10 2 C-6.3558226 -0.4294516 -4.28758728 -0.16179575 0 0 Z " fill="#1137C7" transform="translate(1048,12)"/>
<path d="M0 0 C2.97 0 5.94 0 9 0 C7.02 0.99 7.02 0.99 5 2 C5 2.66 5 3.32 5 4 C3.68 4 2.36 4 1 4 C0.67 2.68 0.34 1.36 0 0 Z " fill="#163ADA" transform="translate(1175,0)"/>
<path d="M0 0 C0 1.32 0 2.64 0 4 C-1.32 4 -2.64 4 -4 4 C-4 3.34 -4 2.68 -4 2 C-4.66 2 -5.32 2 -6 2 C-6 1.34 -6 0.68 -6 0 C-3.50907189 -1.24546405 -2.58919267 -0.7767578 0 0 Z " fill="#1135CB" transform="translate(1660,8)"/>
<path d="M0 0 C0.99 0.33 1.98 0.66 3 1 C3.33 3.31 3.66 5.62 4 8 C3.34 8 2.68 8 2 8 C0.74335022 5.09399739 0 3.20395416 0 0 Z " fill="#1033B7" transform="translate(1262,0)"/>
<path d="M0 0 C1.98 0 3.96 0 6 0 C5.67 0.99 5.34 1.98 5 3 C4.01 3.33 3.02 3.66 2 4 C1.34 2.68 0.68 1.36 0 0 Z " fill="#1034BE" transform="translate(1705,0)"/>
</svg>
